<svg width="600" height="600" xmlns="http://www.w3.org/2000/svg">

 <g>
  <title>Layer 1</title>
  <path id="svg_1" fill="#2e00a5" d="m263.70422,96.05829c3.572,2.679 5.205,4.667 6,9c0.085,1.36 0.122,2.724 0.12,4.088l0.004,2.439l-0.011,2.648l0,2.81l-0.016,9.187l-0.004,6.373l-0.025,16.769l-0.02,17.113l-0.048,33.573l1.859,-0.214l2.446,-0.277l2.422,-0.276c57.203,-5.861 125.1,9.914 172.273,42.767l1.977,1.373c26.587,18.709 47.21,42.734 62.023,71.627l1.073,2.055c18.981,36.689 30.396,87.664 25.927,128.945c-1.647,4.16 -2.395,5.628 -6.25,8c-4.596,1.225 -6.383,0.838 -10.75,-1c-2.294,-2.241 -4.022,-4.786 -5.812,-7.437l-3.141,-4.375l-1.557,-2.168c-6.347,-8.601 -14.047,-15.53 -22.49,-22.02l-2.836,-2.242c-7.679,-5.95 -15.733,-10.971 -24.164,-15.758l-1.824,-1.043c-10.36,-5.876 -21.13,-10.532 -32.176,-14.957l-2.001,-0.82c-44.028,-17.983 -93.077,-23.583 -140.194,-26.231l-4.906,-0.278l-11.899,-0.671l0.02,3.37l0.135,31.471l0.071,16.179l0.058,15.62l0.033,5.953l0.023,8.351l0.033,2.474c-0.028,5.257 -0.844,8.939 -3.373,13.582c-3.499,2.333 -5.318,2.676 -9.437,2.551c-4.783,-1.028 -8.158,-4.153 -11.88,-7.194c-2.576,-2.077 -5.22,-4.062 -7.856,-6.061l-10.827,-8.296l-1.759,-1.353l-7.866,-6.054l-11.875,-9.093l-18.125,-13.906l-11.875,-9.094l-18.125,-13.906l-11.875,-9.094l-15,-11.5l-23.5,-18l-26.625,-20.406l-11.875,-9.094l-18.082,-13.883l-7.93,-5.984l-2.348,-1.762l-4.582,-3.406l-2.102,-1.582l-1.876,-1.394c-2.649,-2.494 -3.491,-4.793 -3.956,-8.364c0.587,-4.892 3.116,-8.033 6.793,-11.223l2.77,-1.965l3.219,-2.332l1.75,-1.26c3.389,-2.472 6.705,-5.04 10.031,-7.595l4.371,-3.348l2.218,-1.7l8.812,-6.739l16.912,-12.963l25.707,-19.687l24.418,-18.72l14.078,-10.777l12.797,-9.816l25.707,-19.687l21.293,-16.313l16.898,-12.953l11.255,-8.625l2.302,-1.768l4.338,-3.34c12.995,-9.976 12.995,-9.976 20.707,-8.314z"/>
  <ellipse ry="0.5" rx="1.5" id="svg_3" cy="356.89998" cx="326.49999" fill="#2e00a5"/>
  <path id="svg_7" d="m300,595c-162.98343,0 -295,-132.01657 -295,-295c0,-162.98343 132.01657,-295 295,-295c162.98343,0 295,132.01657 295,295c0,162.98343 -132.01657,295 -295,295z" opacity="undefined" stroke-width="9" stroke="#2e00a5" fill="none"/>
 </g>
</svg>