<svg width="40" height="40" xmlns="http://www.w3.org/2000/svg" version="1.1">

 <g>
  <title>Layer 1</title>
  <rect id="svg_1" fill=" rgb(255, 255, 255)" stroke-width=" 0px" stroke=" rgb(0, 0, 0)" height="17.308" width="14.814" y="11.315" x="13.007"/>
  <g id="surface1">
   <path id="svg_2" fill="rgb(100%,0%,0%)" fill-rule="nonzero" d="m20,1.5625c-10.1875,0 -18.4375,8.25 -18.4375,18.4375c0,10.1875 8.25,18.4375 18.4375,18.4375c10.1875,0 18.4375,-8.25 18.4375,-18.4375c0,-10.1875 -8.25,-18.4375 -18.4375,-18.4375zm0.01563,16.10938c0,0.70312 -0.67188,1.26562 -1.51563,1.32812l-0.01562,0.01563l-0.46875,0l0,1.4375l0.67187,0.625l0,5.21875c0,0 0,0 0,0.01562c0,1.10938 -0.89062,2 -2,2c-1.09375,0 -1.98437,-0.89062 -2,-1.98437l0,-5.1875l0.15625,-0.14063c0.07813,-0.23437 0.28125,-0.40625 0.51563,-0.48437l0,-1.46875c-0.10938,0.03125 -0.23438,0.04687 -0.35938,0.04687c-0.84375,0 -1.53125,-0.625 -1.625,-1.4375l-0.01562,-0.01562l0,-0.10938c0,-0.01562 0,-0.03125 0,-0.04687l0,-0.48438l-0.03125,-4.64062l0.01562,0c0,-0.35938 0.29688,-0.64063 0.65625,-0.64063c0.375,0 0.67188,0.29688 0.67188,0.65625c0,0 0,0.01563 0,0.01563l0,4.60937l1.32812,0l0,-4.4375l0.03125,-0.04687c-0.01562,-0.04688 -0.03125,-0.09375 -0.03125,-0.14063c0,-0.35937 0.29688,-0.65625 0.65625,-0.65625c0,0 0.01563,0 0.01563,0l0,-0.01562l0.01562,0l0.01563,0.01562c0.34375,0.03125 0.60937,0.3125 0.60937,0.65625c0,0.03125 -0.01562,0.07813 -0.01562,0.10938l0.01562,0.03125l0,4.5l1.32813,0l0,-4.60938c0,-0.01562 0,-0.01562 0,-0.03125c0,-0.35937 0.29687,-0.65625 0.67187,-0.65625c0.375,0 0.67188,0.29688 0.67188,0.65625c0,0.01563 0,0.03125 0,0.03125l0,5.21875l-0.04688,0.04688l0.07813,0zm6.625,1.1875l0,8.70312l-0.01563,0.01563c-0.03125,0.40625 -0.34375,0.73437 -0.75,0.73437c-0.03125,0 -0.04687,0 -0.07812,0l-0.09375,0c-0.03125,0 -0.04688,0 -0.07813,0c-0.03125,0 -0.04687,0 -0.07812,0c-0.375,-0.04687 -0.89063,-0.375 -0.89063,-0.76562c0,0 0,-0.01563 0,-0.01563l0,-3.79687l-1.15625,0c-0.01562,0 -0.03125,0 -0.0625,0c-0.40625,0 -0.75,-0.34375 -0.75,-0.78125c0,0 0,0 0,-0.01563l-0.01562,-0.01562l0,-7.29688c0,-0.10937 -0.01563,-0.21875 -0.01563,-0.34375c0,-1.96875 2.09375,-3.57812 3.98438,-3.57812l0,7.15625zm0,0"/>
  </g>
  <ellipse fill-opacity="0" ry="18" rx="18" id="svg_3" cy="20" cx="20" stroke="#000" fill="#0fffff"/>
 </g>
</svg>