<svg xmlns="http://www.w3.org/2000/svg" width="40" height="56" xmlns:v="https://vecta.io/nano"><g stroke="#000"><path d="M20.073 18.864c7.521-28.299 36.988 0 0 36.385-36.988-36.385-7.521-64.684 0-36.385z" fill="rgb(0%,75%,0%)"/><path fill="#fff" stroke-width=" 0px" d="M13.007 11.315h14.814v17.308H13.007z"/></g><path fill="rgb(0%,75%,0%)" d="M20 1.563C9.813 1.563 1.563 9.813 1.563 20S9.813 38.438 20 38.438 38.438 30.188 38.438 20 30.188 1.563 20 1.563zm.016 16.109c0 .703-.672 1.266-1.516 1.328l-.016.016h-.469v1.438l.672.625v5.219c0 1.125-.891 2.016-2 2.016-1.094 0-1.984-.891-2-1.984v-5.187l.156-.141c.078-.234.281-.406.516-.484v-1.469a1.33 1.33 0 0 1-.359.047c-.844 0-1.531-.625-1.625-1.437l-.016-.016v-.109-.047V17l-.031-4.641h.016c0-.359.297-.641.656-.641.375 0 .672.297.672.656V17H16v-4.437l.031-.047c-.016-.047-.031-.094-.031-.141a.66.66 0 0 1 .656-.656l.016-.016h.016l.016.016c.344.031.609.313.609.656 0 .031-.016.078-.016.109l.016.031v4.5h1.328v-4.609-.031c0-.359.297-.656.672-.656s.672.297.672.656v.031 5.219l-.047.047h.078zm6.625 1.188v8.703l-.016.016c-.031.406-.344.734-.75.734h-.078-.094-.078-.078c-.375-.047-.891-.375-.891-.766v-3.812H23.5h-.062c-.406 0-.75-.344-.75-.781l-.016-.031v-7.297c0-.109-.016-.219-.016-.344 0-1.969 2.094-3.578 3.984-3.578v7.156zm0 0"/><circle cy="19.845" cx="20" stroke="#000" fill="none" r="18"/></svg>